# xmcd
#
# Track frame offsets:
# 150
# 17564
# 31384
# 48129
# 58158
# 71826
# 88879
#
# Disc length: 1417 seconds
#
# Revision: 0
# Processed by: cddbd v1.5.1PL0 Copyright (c) Steve Scherf et al.
# Submitted via: Audion 3.0.2 (http://www.panic.com/audion/)
#
DISCID=5a058707
DTITLE=Sui Generis - behavoural therapy
DYEAR=1900
DGENRE=
TTITLE0=Get up
TTITLE1=Secrets
TTITLE2=Walls Cave
TTITLE3=Despite Myself
TTITLE4=Brain Machine
TTITLE5=Drowning in Vengeance
TTITLE6=In the Eyes of the Enemy
EXTD=
EXTT0=
EXTT1=
EXTT2=
EXTT3=
EXTT4=
EXTT5=
EXTT6=
PLAYORDER=
